<svg width="32" height="32" viewBox="0 0 32 32" fill="none" xmlns="http://www.w3.org/2000/svg">
<path d="M32 8C32 3.58172 28.4183 0 24 0H8C3.58172 0 0 3.58172 0 8V24C0 28.4183 3.58172 32 8 32H24C28.4183 32 32 28.4183 32 24V8Z" fill="white"/>
<path d="M24.8739 21.4904C24.7286 21.2591 24.5386 21.059 24.3151 20.902C24.0916 20.7449 23.839 20.634 23.5721 20.5757C22.5511 20.3383 21.6656 19.7063 21.109 18.8179C20.5525 17.9295 20.3703 16.857 20.6021 15.8347C20.6912 15.4395 20.6616 15.0269 20.517 14.6485C20.3724 14.2701 20.1192 13.9429 19.7892 13.708C19.4592 13.4731 19.0672 13.3409 18.6623 13.3281C18.2574 13.3152 17.8578 13.4223 17.5136 13.6358C17.1694 13.8494 16.896 14.1598 16.7276 14.5282C16.5593 14.8967 16.5036 15.3066 16.5675 15.7066C16.6314 16.1066 16.812 16.4788 17.0868 16.7765C17.3615 17.0741 17.7181 17.284 18.1117 17.3796C18.6209 17.4945 19.1024 17.7087 19.5287 18.01C19.9549 18.3113 20.3175 18.6938 20.5956 19.1355C20.8738 19.5773 21.062 20.0695 21.1495 20.5841C21.2371 21.0987 21.2222 21.6256 21.1057 22.1344C21.0367 22.4624 21.049 22.8023 21.1415 23.1245C21.234 23.4467 21.4039 23.7413 21.6364 23.9828C21.8689 24.2243 22.1569 24.4052 22.4753 24.5099C22.7938 24.6145 23.1329 24.6397 23.4633 24.5833C23.7938 24.5268 24.1053 24.3904 24.3709 24.1859C24.6365 23.9814 24.8481 23.7151 24.9872 23.4101C25.1262 23.1051 25.1886 22.7708 25.1689 22.4362C25.1491 22.1016 25.0479 21.7769 24.8739 21.4904Z" fill="#DD2590"/>
<path d="M12.2368 19.2021C12.2368 19.2063 12.2391 19.2101 12.2428 19.2121C12.6009 19.406 13.0086 19.4892 13.4141 19.451C13.822 19.4126 14.209 19.2532 14.5256 18.9933C14.8422 18.7334 15.0739 18.3848 15.191 17.9923C15.3081 17.5998 15.3053 17.1813 15.1828 16.7904C15.0277 16.292 14.9724 15.7678 15.0202 15.248C15.068 14.7282 15.2179 14.2229 15.4614 13.7611C15.7048 13.2993 16.037 12.8902 16.4389 12.557C16.8408 12.2239 17.3045 11.9734 17.8034 11.8198C18.1904 11.6986 18.5328 11.4657 18.7877 11.1503C19.0425 10.8349 19.1984 10.4512 19.2357 10.0474C19.273 9.64367 19.19 9.23789 18.9973 8.88119C18.8045 8.52446 18.5105 8.23273 18.1523 8.04271C17.7941 7.8527 17.3877 7.77285 16.9843 7.81328C16.5808 7.85368 16.1983 8.01251 15.8849 8.26981C15.5715 8.52708 15.3412 8.87132 15.223 9.25918C15.1048 9.64704 15.1039 10.0612 15.2205 10.4495C15.5266 11.4521 15.4231 12.5351 14.9326 13.4616C14.4421 14.388 13.6046 15.0824 12.6034 15.3927C12.2081 15.5073 11.8563 15.738 11.5936 16.0548C11.3309 16.3716 11.1693 16.7599 11.1298 17.1696C11.0904 17.5792 11.1748 17.9913 11.3721 18.3524C11.5684 18.7116 11.8673 19.0038 12.2306 19.192C12.2344 19.1939 12.2368 19.1978 12.2368 19.2021V19.2021Z" fill="#DD2590"/>
<path d="M17.5259 18.8731C17.2526 18.8827 16.984 18.9467 16.7358 19.0614C16.4875 19.1761 16.2647 19.3392 16.0803 19.5411C15.3648 20.3064 14.3754 20.7573 13.3284 20.7951C12.2814 20.833 11.262 20.4548 10.4931 19.7432C10.2944 19.5568 10.0607 19.4117 9.80545 19.3165C9.55024 19.2212 9.27862 19.1776 9.00639 19.1883C8.67131 19.2041 8.34517 19.3017 8.05648 19.4725C7.76777 19.6433 7.5253 19.8822 7.35018 20.1683C7.17504 20.4544 7.07262 20.7791 7.0518 21.1139C7.03101 21.4487 7.09246 21.7835 7.23082 22.0891C7.36919 22.3947 7.58022 22.6618 7.84555 22.867C8.11088 23.0723 8.4224 23.2095 8.75294 23.2667C9.08349 23.3238 9.42302 23.2992 9.74186 23.195C10.0607 23.0908 10.3492 22.9101 10.5822 22.6687C10.9365 22.285 11.3631 21.9751 11.8374 21.7565C12.3117 21.538 12.8245 21.4152 13.3464 21.3951C13.8683 21.3751 14.389 21.4582 14.8787 21.6397C15.3684 21.8212 15.8175 22.0975 16.2002 22.4529C16.4494 22.678 16.7499 22.8387 17.0755 22.9208C17.4011 23.0029 17.7419 23.004 18.0681 22.924C18.3942 22.8439 18.6957 22.6852 18.9463 22.4616C19.1969 22.2381 19.3889 21.9565 19.5056 21.6416C19.6222 21.3267 19.6599 20.988 19.6153 20.6552C19.5708 20.3223 19.4454 20.0055 19.25 19.7323C19.0547 19.4591 18.7954 19.238 18.4949 19.0882C18.1943 18.9384 17.8616 18.8646 17.5259 18.8731Z" fill="#DD2590"/>
</svg>
